<svg version="1.1" xmlns="http://www.w3.org/2000/svg" width="500px" height="512px" transform="rotate(0) scale(1, 1)">
<path d="M0 0 C5.14648822 4.64439181 7.29630064 7.76842023 7.72265625 14.74609375 C7.46598544 18.85908699 6.20777004 22.14922669 3.5625 25.3125 C-0.5370838 28.36351777 -4.00321745 29.99504446 -8.97265625 31.12890625 C-10.19404297 31.41830078 -11.41542969 31.70769531 -12.67382812 32.00585938 C-13.93646484 32.29267578 -15.19910156 32.57949219 -16.5 32.875 C-19.0135086 33.4518918 -21.5253179 34.03625028 -24.03515625 34.62890625 C-25.14383057 34.88099854 -26.25250488 35.13309082 -27.39477539 35.39282227 C-31.81149244 36.72779564 -34.65143086 38.1469492 -37.25 42 C-38.90980272 46.62997602 -39.3817202 50.63454214 -37.74609375 55.2734375 C-36.20090894 58.33794629 -34.52284212 60.25097429 -31.75 62.25 C-23.0485848 65.04101997 -14.38444081 62.43832061 -5.75 60.5 C3.34425941 58.53754546 12.39991698 56.7246263 21.625 55.5 C22.4605542 55.38873779 23.2961084 55.27747559 24.15698242 55.1628418 C34.55123443 53.85381276 44.90360434 53.15494314 55.37890625 53.109375 C56.46549026 53.10231537 57.55207428 53.09525574 58.67158508 53.08798218 C92.09673203 52.92004734 124.27797778 54.70119777 156.81713867 62.87915039 C161.87793685 64.13567812 166.31598488 63.95884117 170.9375 61.5625 C175.32011545 57.80597247 177.09192495 55.36612085 177.625 49.40234375 C177.48568618 44.74403779 175.67759145 41.37229358 172.35693359 38.21630859 C169.18410914 36.05470759 166.72709518 35.368993 162.9765625 34.6015625 C161.71585937 34.32570312 160.45515625 34.04984375 159.15625 33.765625 C157.17425513 33.348466 155.19115847 32.93824107 153.20605469 32.53613281 C138.30487691 29.47587104 138.30487691 29.47587104 133.5625 23.3125 C130.96453186 18.69039214 130.91992221 14.52541229 131.5625 9.3125 C132.86563348 5.3956954 135.11038252 2.75331455 138.0625 -0.125 C147.72538869 -4.4387896 158.93784201 -0.81408582 168.6875 1.75 C169.37793396 1.92723602 170.06836792 2.10447205 170.77972412 2.28707886 C222.91786261 15.69319482 222.91786261 15.69319482 232.5625 29.3125 C237.92152411 39.7753769 240.78555829 51.46377368 244.109375 62.6796875 C244.75187603 64.82953253 245.39498453 66.9791961 246.03865051 69.12869263 C247.77608733 74.93671682 249.50564386 80.74705766 251.23314285 86.55804443 C254.16852194 96.42857524 257.11385524 106.29614584 260.05757332 116.1641922 C260.82192382 118.72709838 261.58601742 121.29007925 262.34963799 123.85320282 C267.6119897 141.51531968 272.9340534 159.1581873 278.31635296 176.78411829 C280.81880245 184.98037108 283.30863712 193.18046116 285.79829979 201.3806057 C287.63579434 207.42905 289.48042905 213.47513372 291.34094238 219.51654053 C293.09059958 225.19830992 294.82206114 230.88531589 296.54031944 236.57665634 C297.17182878 238.65638196 297.81003251 240.73408923 298.45563698 242.80948257 C306.94086775 270.11473404 306.94086775 270.11473404 300.8828125 283.078125 C298.57475723 286.98406468 295.79107 290.14216073 292.5625 293.3125 C291.64404297 294.22902344 291.64404297 294.22902344 290.70703125 295.1640625 C274.35020286 310.54011395 253.67872722 321.81128288 233.52099609 331.37841797 C232.24333441 331.98778391 230.96994416 332.60621241 229.70166016 333.23486328 C218.57291483 338.74256043 206.94452833 342.70361863 195.1875 346.625 C194.40814087 346.88575317 193.62878174 347.14650635 192.82580566 347.41516113 C163.98407852 357.02502499 163.98407852 357.02502499 156.5625 354.3125 C152.35651766 351.66106036 149.33879707 348.77193849 147 344.375 C146.28299785 339.35598494 146.70847348 335.19135835 148.8125 330.5625 C152.18267003 326.22942424 155.74520281 323.94738647 161 322.5 C162.14855469 322.16613281 163.29710937 321.83226562 164.48046875 321.48828125 C165.1254834 321.30346191 165.77049805 321.11864258 166.43505859 320.92822266 C179.19690313 317.23469822 191.71208761 313.02644553 204.0625 308.125 C205.11856445 307.70911621 206.17462891 307.29323242 207.26269531 306.86474609 C216.10949972 303.57619588 216.10949972 303.57619588 222.9140625 297.3671875 C224.59585631 292.03813 224.30723787 286.88790703 221.9375 281.875 C218.51839856 278.1859695 215.62427144 276.5610049 210.61328125 275.95703125 C204.91187457 276.06168537 199.75195629 278.73998812 194.5625 280.875 C165.49065143 292.38900622 135.68657573 299.2306284 104.5625 302.3125 C103.71171875 302.4067627 102.8609375 302.50102539 101.984375 302.59814453 C46.46448259 308.13231355 -13.21644785 300.33481122 -64.3359375 277.6015625 C-69.16683798 275.59375751 -72.74727086 275.68280679 -77.625 277.5 C-81.36940058 279.91305815 -83.74541703 281.97727811 -85.04296875 286.35546875 C-85.92902033 291.45245851 -85.32175454 294.85370209 -82.87011719 299.42358398 C-80.20399401 302.93888648 -76.59220533 304.15820224 -72.5625 305.6875 C-71.66136475 306.05125732 -70.76022949 306.41501465 -69.83178711 306.78979492 C-53.45267511 313.24590516 -36.5296317 318.87066899 -19.47631836 323.21166992 C-15.01122361 324.82917713 -12.26771798 327.08148713 -9.625 331 C-7.66283737 336.47340102 -7.66283737 341.15159898 -9.625 346.625 C-12.91556911 351.50411971 -16.67811995 354.0941696 -22.4375 355.3125 C-30.45240946 354.87086213 -37.78329341 352.70111029 -45.4375 350.375 C-46.09267609 350.17686707 -46.74785217 349.97873413 -47.42288208 349.77459717 C-83.00589722 338.95975549 -141.31492946 318.89586991 -161.4375 284.6875 C-166.61971999 274.10331924 -166.13631597 265.28807009 -162.8515625 254.28125 C-162.5478775 253.23094604 -162.2441925 252.18064209 -161.93130493 251.09851074 C-160.78450015 247.16437988 -159.61323981 243.23805591 -158.4375 239.3125 C-158.19875656 238.51322083 -157.96001312 237.71394165 -157.71403503 236.89044189 C-153.46503684 222.66557552 -149.1634191 208.45671064 -144.85488129 194.24978638 C-141.63942771 183.64672307 -138.42756138 173.04257526 -135.21875 162.4375 C-134.85593807 161.23870712 -134.49312614 160.03991425 -134.11931992 158.80479431 C-129.05804618 142.07433312 -124.05557752 125.32740081 -119.1086235 108.56278992 C-118.10383297 105.15915514 -117.09725425 101.75605476 -116.08999634 98.35314941 C-115.7639057 97.25136101 -115.43781506 96.1495726 -115.10184288 95.01439667 C-114.45328805 92.82312184 -113.80467951 90.6318629 -113.1560154 88.44062042 C-111.27591746 82.08486624 -109.40830468 75.72560302 -107.54941177 69.36361694 C-106.39464816 65.42204425 -105.22847429 61.4839139 -104.0592804 57.54660034 C-103.52398227 55.73494972 -102.99353415 53.92185734 -102.4684906 52.10720825 C-98.61122713 38.78569803 -94.98956002 26.85345687 -82.4375 19.3125 C-78.58851215 17.39599441 -74.6600845 15.85381227 -70.625 14.375 C-69.50641602 13.95532959 -68.38783203 13.53565918 -67.23535156 13.10327148 C-13.46638793 -6.61077226 -13.46638793 -6.61077226 0 0 Z M-12.8359375 196.953125 C-16.57650192 202.46361503 -16.87157245 207.73104461 -15.9140625 214.2109375 C-15.22335903 217.25682659 -14.06738602 219.65638945 -12.4375 222.3125 C-11.921875 223.158125 -11.40625 224.00375 -10.875 224.875 C-6.07395372 229.67604628 -0.20624544 232.57659926 6.625 232.875 C14.03565239 232.42199774 19.49302284 229.8475019 24.5 224.375 C29.27079218 218.70193034 30.02247713 213.57390362 29.87109375 206.31640625 C29.24409565 200.21309559 26.74509499 196.14858433 22.3125 192 C17.07962208 187.90518935 11.37721151 185.6332045 4.62890625 185.9765625 C-2.99363449 187.21576572 -8.00628911 191.06518713 -12.8359375 196.953125 Z M113.5625 195.3125 C113.005625 195.93125 112.44875 196.55 111.875 197.1875 C108.07330101 203.3426317 108.11007286 209.45919565 109.5625 216.3125 C111.96193313 224.05924124 117.1471304 227.75623339 123.9375 231.6875 C130.79706896 233.32073071 137.12280434 232.87609783 143.453125 229.7109375 C148.17241732 226.58222148 151.48307689 222.47134621 154 217.4375 C155.60853571 208.50119051 154.71695818 201.95578627 149.5625 194.3125 C144.88053659 188.79965294 138.6007043 186.65007826 131.625 185.875 C124.27464864 186.1933223 118.25287215 189.79441512 113.5625 195.3125 Z " fill="#858585" transform="translate(180.4375,74.6875)"/>
</svg>